<svg width="383" height="100" viewBox="0 0 383 100" fill="none" xmlns="http://www.w3.org/2000/svg">
<g clip-path="url(#clip0_42_17)">
<rect width="100" height="383" transform="matrix(0 1 -1 0 383 0)" fill="#0C1115"/>
<path d="M99 48.4932C99.0009 54.8487 97.2959 61.0878 94.0628 66.5593C90.8297 72.0309 86.1871 76.5342 80.6198 79.599C75.0524 82.6639 68.7645 84.1781 62.4123 83.9833C56.0601 83.7886 49.8767 81.8922 44.5075 78.492L28 83.9947L33.5025 67.4865C30.5582 62.8339 28.7364 57.5602 28.181 52.0822C27.6257 46.6043 28.3521 41.0722 30.3028 35.9233C32.2536 30.7744 35.3751 26.1499 39.4208 22.4152C43.4664 18.6805 48.3253 15.938 53.6132 14.4046C58.9012 12.8711 64.4734 12.5888 69.8893 13.5797C75.3052 14.5707 80.4164 16.8079 84.8188 20.1145C89.2213 23.421 92.7944 27.7063 95.2556 32.6316C97.7168 37.5569 98.9987 42.9872 99 48.4932Z" stroke="#2066D7" stroke-width="5" stroke-linecap="round" stroke-linejoin="round" stroke-dasharray="16 16"/>
<path d="M54.136 66.208C54.136 66.9333 53.8587 67.5307 53.304 68C52.7493 68.4267 51.9387 68.64 50.872 68.64C49.8053 68.64 48.9733 68.4267 48.376 68C47.7787 67.5307 47.48 66.9333 47.48 66.208V38.496C47.48 37.216 47.5653 36.1067 47.736 35.168C47.9067 34.2293 48.248 33.4187 48.76 32.736C49.3147 32.0533 50.0827 31.456 51.064 30.944C52.088 30.432 53.4107 29.9413 55.032 29.472C55.672 29.3013 56.44 29.1307 57.336 28.96C58.2747 28.7467 59.2347 28.576 60.216 28.448C61.1973 28.2773 62.136 28.1493 63.032 28.064C63.9707 27.9787 64.8027 27.936 65.528 27.936C70.6053 27.936 74.3387 28.832 76.728 30.624C79.1173 32.416 80.312 34.72 80.312 37.536C80.312 39.0293 80.0133 40.4587 79.416 41.824C78.8613 43.1893 78.0293 44.448 76.92 45.6C75.8533 46.7093 74.5307 47.6693 72.952 48.48C71.3733 49.2907 69.56 49.888 67.512 50.272C69.3467 50.5707 71.096 51.2533 72.76 52.32C74.424 53.344 75.896 54.6027 77.176 56.096C78.456 57.5467 79.4587 59.1467 80.184 60.896C80.952 62.6453 81.336 64.3733 81.336 66.08C81.336 66.9333 81.0373 67.5947 80.44 68.064C79.8853 68.5333 79.0533 68.768 77.944 68.768C76.8347 68.768 76.024 68.5333 75.512 68.064C75 67.5947 74.7013 66.9547 74.616 66.144C74.4453 64.0533 73.912 62.1547 73.016 60.448C72.1627 58.6987 71.096 57.2053 69.816 55.968C68.536 54.688 67.0853 53.7067 65.464 53.024C63.8853 52.2987 62.3067 51.936 60.728 51.936H59.448C58.6373 51.936 57.7627 51.9147 56.824 51.872C55.8853 51.7867 54.9893 51.68 54.136 51.552V66.208ZM54.136 48.096C54.8613 48.224 55.7147 48.3093 56.696 48.352C57.72 48.352 58.7227 48.352 59.704 48.352C64.568 48.352 68.088 47.4987 70.264 45.792C72.4827 44.0853 73.592 41.7173 73.592 38.688C73.592 36.512 72.8027 34.784 71.224 33.504C69.688 32.224 67.3413 31.584 64.184 31.584C63.3307 31.584 62.4133 31.648 61.432 31.776C60.4933 31.8613 59.6827 31.9893 59 32.16C57.8907 32.416 56.9947 32.6933 56.312 32.992C55.672 33.248 55.1813 33.6107 54.84 34.08C54.5413 34.5067 54.3493 35.0827 54.264 35.808C54.1787 36.4907 54.136 37.4293 54.136 38.624V48.096Z" fill="#2066D7"/>
<path d="M128.136 66.208C128.136 66.9333 127.859 67.5307 127.304 68C126.749 68.4267 125.939 68.64 124.872 68.64C123.805 68.64 122.973 68.4267 122.376 68C121.779 67.5307 121.48 66.9333 121.48 66.208V38.496C121.48 37.216 121.565 36.1067 121.736 35.168C121.907 34.2293 122.248 33.4187 122.76 32.736C123.315 32.0533 124.083 31.456 125.064 30.944C126.088 30.432 127.411 29.9413 129.032 29.472C129.672 29.3013 130.44 29.1307 131.336 28.96C132.275 28.7467 133.235 28.576 134.216 28.448C135.197 28.2773 136.136 28.1493 137.032 28.064C137.971 27.9787 138.803 27.936 139.528 27.936C144.605 27.936 148.339 28.832 150.728 30.624C153.117 32.416 154.312 34.72 154.312 37.536C154.312 39.0293 154.013 40.4587 153.416 41.824C152.861 43.1893 152.029 44.448 150.92 45.6C149.853 46.7093 148.531 47.6693 146.952 48.48C145.373 49.2907 143.56 49.888 141.512 50.272C143.347 50.5707 145.096 51.2533 146.76 52.32C148.424 53.344 149.896 54.6027 151.176 56.096C152.456 57.5467 153.459 59.1467 154.184 60.896C154.952 62.6453 155.336 64.3733 155.336 66.08C155.336 66.9333 155.037 67.5947 154.44 68.064C153.885 68.5333 153.053 68.768 151.944 68.768C150.835 68.768 150.024 68.5333 149.512 68.064C149 67.5947 148.701 66.9547 148.616 66.144C148.445 64.0533 147.912 62.1547 147.016 60.448C146.163 58.6987 145.096 57.2053 143.816 55.968C142.536 54.688 141.085 53.7067 139.464 53.024C137.885 52.2987 136.307 51.936 134.728 51.936H133.448C132.637 51.936 131.763 51.9147 130.824 51.872C129.885 51.7867 128.989 51.68 128.136 51.552V66.208ZM128.136 48.096C128.861 48.224 129.715 48.3093 130.696 48.352C131.72 48.352 132.723 48.352 133.704 48.352C138.568 48.352 142.088 47.4987 144.264 45.792C146.483 44.0853 147.592 41.7173 147.592 38.688C147.592 36.512 146.803 34.784 145.224 33.504C143.688 32.224 141.341 31.584 138.184 31.584C137.331 31.584 136.413 31.648 135.432 31.776C134.493 31.8613 133.683 31.9893 133 32.16C131.891 32.416 130.995 32.6933 130.312 32.992C129.672 33.248 129.181 33.6107 128.84 34.08C128.541 34.5067 128.349 35.0827 128.264 35.808C128.179 36.4907 128.136 37.4293 128.136 38.624V48.096ZM181.329 41.952C184.956 41.952 187.601 42.5707 189.265 43.808C190.972 45.0453 191.825 46.56 191.825 48.352C191.825 50.4427 191.078 52.2347 189.585 53.728C188.134 55.1787 185.638 56.2027 182.097 56.8L166.161 59.488C166.161 61.0667 166.588 62.3253 167.441 63.264C168.337 64.16 169.958 64.608 172.305 64.608C174.438 64.608 176.401 64.352 178.193 63.84C180.028 63.328 181.777 62.6667 183.441 61.856C184.209 61.472 184.806 61.28 185.233 61.28C186.214 61.28 186.705 61.8773 186.705 63.072C186.705 63.7973 186.257 64.3947 185.361 64.864C180.412 67.552 175.441 68.896 170.449 68.896C168.444 68.896 166.716 68.6827 165.265 68.256C163.857 67.8293 162.705 67.2533 161.809 66.528C160.913 65.76 160.252 64.864 159.825 63.84C159.398 62.816 159.185 61.7067 159.185 60.512C159.185 58.2933 159.782 56.0747 160.977 53.856C162.172 51.6373 163.772 49.6533 165.777 47.904C167.825 46.1547 170.172 44.7253 172.817 43.616C175.505 42.5067 178.342 41.952 181.329 41.952ZM179.217 45.6C177.724 45.6 176.252 45.8773 174.801 46.432C173.35 46.9867 172.028 47.7333 170.833 48.672C169.681 49.6107 168.678 50.6987 167.825 51.936C167.014 53.1307 166.481 54.368 166.225 55.648L180.177 53.408C182.31 53.0667 183.697 52.576 184.337 51.936C185.02 51.296 185.361 50.4853 185.361 49.504C185.361 48.48 184.849 47.584 183.825 46.816C182.801 46.0053 181.265 45.6 179.217 45.6ZM204.069 66.08C204.069 66.8053 203.813 67.424 203.301 67.936C202.789 68.4053 201.957 68.64 200.805 68.64C199.696 68.64 198.885 68.4053 198.373 67.936C197.861 67.424 197.605 66.8053 197.605 66.08V25.632C197.605 24.9067 197.861 24.3093 198.373 23.84C198.885 23.328 199.696 23.072 200.805 23.072C201.957 23.072 202.789 23.328 203.301 23.84C203.813 24.3093 204.069 24.9067 204.069 25.632V66.08ZM233.267 41.952C237.107 41.952 239.901 42.6773 241.651 44.128C243.4 45.5787 244.275 47.4773 244.275 49.824C244.275 50.5493 244.147 51.2747 243.891 52C243.677 52.7253 243.571 53.3867 243.571 53.984V66.08C243.571 66.8053 243.315 67.424 242.803 67.936C242.333 68.4053 241.544 68.64 240.435 68.64C239.283 68.64 238.451 68.4053 237.939 67.936C237.469 67.424 237.235 66.8053 237.235 66.08V61.792C235.315 63.968 233.053 65.696 230.451 66.976C227.848 68.256 225.075 68.896 222.131 68.896C218.248 68.896 215.432 68.1493 213.683 66.656C211.976 65.12 211.123 63.0507 211.123 60.448C211.123 58.2293 211.72 56.032 212.915 53.856C214.109 51.6373 215.731 49.6533 217.779 47.904C219.827 46.112 222.173 44.6827 224.819 43.616C227.507 42.5067 230.323 41.952 233.267 41.952ZM231.027 45.728C229.149 45.728 227.421 46.0907 225.843 46.816C224.264 47.4987 222.877 48.416 221.683 49.568C220.531 50.72 219.613 52.0427 218.931 53.536C218.291 55.0293 217.97 56.5653 217.97 58.144C217.97 60.1493 218.525 61.7067 219.635 62.816C220.787 63.8827 222.408 64.416 224.499 64.416C226.291 64.416 227.976 64.0747 229.555 63.392C231.133 62.6667 232.499 61.728 233.651 60.576C234.845 59.424 235.784 58.1013 236.467 56.608C237.192 55.1147 237.555 53.5573 237.555 51.936C237.555 50.0587 236.957 48.5653 235.763 47.456C234.611 46.304 233.032 45.728 231.027 45.728ZM263.869 68.896C262.461 68.896 261.16 68.704 259.965 68.32C258.77 67.936 257.746 67.4027 256.893 66.72C256.04 66.0373 255.378 65.2267 254.909 64.288C254.44 63.3493 254.205 62.3253 254.205 61.216C254.205 60.2347 254.29 59.4667 254.461 58.912C254.674 58.3147 254.781 57.6107 254.781 56.8V46.816H251.901C250.664 46.816 250.045 46.1333 250.045 44.768C250.045 43.4453 250.664 42.784 251.901 42.784H254.781V37.088C254.781 36.3627 255.016 35.7653 255.485 35.296C255.997 34.784 256.808 34.528 257.917 34.528C259.069 34.528 259.88 34.784 260.349 35.296C260.861 35.7653 261.117 36.3627 261.117 37.088V42.784H269.245C270.482 42.784 271.101 43.4453 271.101 44.768C271.101 46.1333 270.482 46.816 269.245 46.816H261.117V58.592C261.117 62.688 262.674 64.736 265.789 64.736C266.898 64.736 267.816 64.6507 268.541 64.48C269.309 64.3093 270.056 64.0533 270.781 63.712C271.122 63.5413 271.421 63.456 271.677 63.456C272.146 63.456 272.53 63.6053 272.829 63.904C273.128 64.2027 273.277 64.5867 273.277 65.056C273.277 65.7813 272.914 66.3573 272.189 66.784C271.037 67.424 269.714 67.936 268.221 68.32C266.728 68.704 265.277 68.896 263.869 68.896ZM299.267 41.952C303.107 41.952 305.901 42.6773 307.651 44.128C309.4 45.5787 310.275 47.4773 310.275 49.824C310.275 50.5493 310.147 51.2747 309.891 52C309.677 52.7253 309.571 53.3867 309.571 53.984V66.08C309.571 66.8053 309.315 67.424 308.803 67.936C308.333 68.4053 307.544 68.64 306.435 68.64C305.283 68.64 304.451 68.4053 303.939 67.936C303.469 67.424 303.235 66.8053 303.235 66.08V61.792C301.315 63.968 299.053 65.696 296.451 66.976C293.848 68.256 291.075 68.896 288.131 68.896C284.248 68.896 281.432 68.1493 279.683 66.656C277.976 65.12 277.123 63.0507 277.123 60.448C277.123 58.2293 277.72 56.032 278.915 53.856C280.109 51.6373 281.731 49.6533 283.779 47.904C285.827 46.112 288.173 44.6827 290.819 43.616C293.507 42.5067 296.323 41.952 299.267 41.952ZM297.027 45.728C295.149 45.728 293.421 46.0907 291.843 46.816C290.264 47.4987 288.877 48.416 287.683 49.568C286.531 50.72 285.613 52.0427 284.931 53.536C284.291 55.0293 283.97 56.5653 283.97 58.144C283.97 60.1493 284.525 61.7067 285.635 62.816C286.787 63.8827 288.408 64.416 290.499 64.416C292.291 64.416 293.976 64.0747 295.555 63.392C297.133 62.6667 298.499 61.728 299.651 60.576C300.845 59.424 301.784 58.1013 302.467 56.608C303.192 55.1147 303.555 53.5573 303.555 51.936C303.555 50.0587 302.957 48.5653 301.763 47.456C300.611 46.304 299.032 45.728 297.027 45.728ZM325.069 66.08C325.069 66.8053 324.813 67.424 324.301 67.936C323.789 68.4053 322.957 68.64 321.805 68.64C320.696 68.64 319.885 68.4053 319.373 67.936C318.861 67.424 318.605 66.8053 318.605 66.08V25.632C318.605 24.9067 318.861 24.3093 319.373 23.84C319.885 23.328 320.696 23.072 321.805 23.072C322.957 23.072 323.789 23.328 324.301 23.84C324.813 24.3093 325.069 24.9067 325.069 25.632V66.08ZM340.379 66.08C340.379 66.8053 340.123 67.424 339.611 67.936C339.141 68.4053 338.331 68.64 337.179 68.64C336.069 68.64 335.259 68.4053 334.747 67.936C334.277 67.424 334.043 66.8053 334.043 66.08V25.632C334.043 24.9067 334.277 24.3093 334.747 23.84C335.259 23.328 336.069 23.072 337.179 23.072C338.331 23.072 339.141 23.328 339.611 23.84C340.123 24.3093 340.379 24.9067 340.379 25.632L340.187 51.296C340.613 50.144 341.275 49.0133 342.171 47.904C343.109 46.7947 344.176 45.8133 345.371 44.96C346.608 44.064 347.952 43.36 349.403 42.848C350.853 42.336 352.325 42.08 353.819 42.08C355.355 42.08 356.443 42.3573 357.083 42.912C357.723 43.424 358.043 44.1067 358.043 44.96C358.043 46.88 357.317 47.84 355.867 47.84C355.44 47.84 355.035 47.7973 354.651 47.712C354.309 47.584 353.947 47.456 353.563 47.328C353.179 47.1573 352.752 47.0293 352.283 46.944C351.856 46.816 351.344 46.752 350.747 46.752C349.723 46.752 348.763 46.944 347.867 47.328C346.971 47.6693 346.181 48.1387 345.499 48.736C344.859 49.2907 344.347 49.952 343.963 50.72C343.621 51.488 343.451 52.2773 343.451 53.088C343.451 54.1973 343.813 55.2853 344.539 56.352C345.264 57.4187 346.181 58.4 347.291 59.296C348.443 60.192 349.68 60.96 351.003 61.6C352.368 62.24 353.691 62.6667 354.971 62.88C356.08 63.0933 356.827 63.4133 357.211 63.84C357.595 64.224 357.787 64.9067 357.787 65.888C357.787 66.6987 357.531 67.4027 357.019 68C356.507 68.5973 355.739 68.896 354.715 68.896C353.136 68.896 351.515 68.4907 349.851 67.68C348.229 66.8693 346.736 65.76 345.371 64.352C344.005 62.944 342.832 61.3013 341.851 59.424C340.912 57.5893 340.357 55.6267 340.187 53.536L340.379 66.08Z" fill="white"/>
</g>
<defs>
<clipPath id="clip0_42_17">
<rect width="100" height="383" fill="white" transform="matrix(0 1 -1 0 383 0)"/>
</clipPath>
</defs>
</svg>
